<?xml version="1.0" encoding="UTF-8"?>
<svg version="1.1" xmlns="http://www.w3.org/2000/svg" width="20" height="20" viewBox="0 0 256 256">
<path d="M0 0 C2.7109375 0.87109375 2.7109375 0.87109375 5 2 C5.07003679 18.76767807 5.12296195 35.5353088 5.15543652 52.30309772 C5.17091484 60.08842669 5.1920227 67.87366486 5.22631836 75.65893555 C5.25619129 82.44345207 5.27556798 89.22790284 5.28226548 96.0124833 C5.28618135 99.60591691 5.29540395 103.19916239 5.31719017 106.79253578 C5.34129651 110.80098492 5.34197136 114.80910561 5.34057617 118.81762695 C5.351362 120.0130864 5.36214783 121.20854584 5.3732605 122.44023132 C5.36707451 124.07455612 5.36707451 124.07455612 5.36076355 125.74189758 C5.36352893 126.69042256 5.36629431 127.63894754 5.36914349 128.61621571 C4.93458548 131.42242141 4.26684628 132.33737308 2 134 C-2.02889347 133.93271159 -4.28576877 131.14995852 -7.0625 128.5 C-10.75818379 125.03370348 -14.50030694 121.69540306 -18.4375 118.5 C-19.32953125 117.77296875 -20.2215625 117.0459375 -21.140625 116.296875 C-23.20089666 114.64190268 -25.27198207 113.01044191 -27.359375 111.390625 C-28.46890056 110.51060647 -29.57827882 109.63040216 -30.6875 108.75 C-31.70199219 107.96109375 -32.71648437 107.1721875 -33.76171875 106.359375 C-36 104 -36 104 -36.421875 101.30859375 C-35.91952959 98.55964803 -35.10272896 97.76629232 -33 96 C-31.7761108 93.55222161 -31.983636 92.26609459 -32.25 89.5625 C-32.31703125 88.78003906 -32.3840625 87.99757813 -32.453125 87.19140625 C-32.80551841 84.92372252 -32.80551841 84.92372252 -34.50708008 83.61425781 C-37.20402246 80.69811995 -36.47083188 76.97824348 -36.4375 73.1875 C-36.45748047 72.39279297 -36.47746094 71.59808594 -36.49804688 70.77929688 C-36.4934697 65.24549757 -35.30433088 62.5631236 -32 58 C-31.61853267 55.58201209 -31.61853267 55.58201209 -32.0625 53.3125 C-32.15660156 52.56613281 -32.25070313 51.81976563 -32.34765625 51.05078125 C-32.82948756 48.92046448 -32.82948756 48.92046448 -34.49609375 47.69921875 C-37.62941602 44.15897152 -37.15284924 38.65101023 -36.91015625 34.13671875 C-36.25051276 29.58941112 -33.99327837 27.07243402 -30.4375 24.3125 C-28.6293753 22.97946606 -26.80069319 21.68610989 -24.95117188 20.41113281 C-21.49285808 17.90999996 -18.37142699 15.02354234 -15.1875 12.1875 C-13.33654682 10.58294983 -11.47893317 8.98646008 -9.61962891 7.39160156 C-8.22372491 6.19222671 -6.83570179 4.98369069 -5.44921875 3.7734375 C-3.375 2.0625 -3.375 2.0625 0 0 Z " fill="#AFB1B3" transform="translate(142,61)"/>
<path d="M0 0 C4.17544423 1.53662488 6.96424816 5.10322353 9.9296875 8.2956543 C10.61353516 9.00657227 11.29738281 9.71749023 12.00195312 10.44995117 C13.67979688 12.19819397 15.3420029 13.9588478 16.9921875 15.7331543 C22.25851364 11.36940976 26.89101626 6.70479878 31.46484375 1.61206055 C33.9921875 -0.2668457 33.9921875 -0.2668457 37.1796875 -0.16137695 C39.9921875 0.7331543 39.9921875 0.7331543 41.9296875 2.4831543 C43.31213441 5.41068894 42.91210918 6.66318646 41.9921875 9.7331543 C40.50170898 11.67773438 40.50170898 11.67773438 38.61328125 13.50268555 C37.93974609 14.16333008 37.26621094 14.82397461 36.57226562 15.50463867 C35.86521484 16.17817383 35.15816406 16.85170898 34.4296875 17.5456543 C33.71876953 18.23852539 33.00785156 18.93139648 32.27539062 19.64526367 C30.52300438 21.350606 28.76197281 23.04590606 26.9921875 24.7331543 C31.34351463 29.9930211 35.996374 34.57965414 41.11328125 39.1081543 C42.9921875 41.7331543 42.9921875 41.7331543 42.85546875 45.42456055 C41.62678843 50.13357516 41.62678843 50.13357516 38.9921875 51.7331543 C34.94041314 52.12393457 32.64280795 51.3006889 29.1796875 49.2331543 C28.38949219 48.7690918 27.59929687 48.3050293 26.78515625 47.8269043 C25.89763672 47.28549805 25.89763672 47.28549805 24.9921875 46.7331543 C25.3221875 45.7431543 25.6521875 44.7531543 25.9921875 43.7331543 C22.0321875 40.2681543 22.0321875 40.2681543 17.9921875 36.7331543 C14.64366855 38.40741377 13.30780993 39.19382969 10.93359375 41.7722168 C10.38251953 42.35229492 9.83144531 42.93237305 9.26367188 43.5300293 C8.12225956 44.75101435 6.98683785 45.97762665 5.85742188 47.2097168 C1.65404303 51.60438126 1.65404303 51.60438126 -1.73828125 52.2644043 C-5.35035543 51.41889296 -6.84004644 49.66601427 -9.0078125 46.7331543 C-9.13728463 43.43401271 -8.56851576 41.44107416 -6.51074219 38.84301758 C-4.54625226 36.77913078 -2.52060653 34.81048196 -0.4453125 32.8581543 C0.26560547 32.16979492 0.97652344 31.48143555 1.70898438 30.7722168 C3.45928078 29.08065517 5.22015578 27.40188372 6.9921875 25.7331543 C2.62844296 20.46682816 -2.03616802 15.83432554 -7.12890625 11.26049805 C-9.0078125 8.7331543 -9.0078125 8.7331543 -8.86328125 5.5456543 C-7.28028291 0.34127621 -5.53127287 -0.89682776 0 0 Z " fill="#AFB1B3" transform="translate(63.0078125,109.266845703125)"/>
<path d="M0 0 C6.60010789 2.23749788 10.12233712 10.6375903 13.2109375 16.41796875 C23.20888807 37.13282364 24.5431062 61.986945 17.26953125 83.76953125 C13.970821 92.91028507 9.17414042 104.68956316 0.5234375 109.85546875 C-2.2265625 109.54296875 -2.2265625 109.54296875 -4.4765625 108.85546875 C-5.62879241 104.91769335 -5.74028376 103.35192099 -3.78125 99.6640625 C-2.98401672 98.53134569 -2.17336468 97.40798868 -1.3515625 96.29296875 C10.34303331 79.31869686 13.43676033 58.66583032 9.87109375 38.44921875 C7.4992204 28.75813109 3.44124014 18.26236553 -3.16796875 10.65625 C-5.4765625 7.85546875 -5.4765625 7.85546875 -5.9765625 4.60546875 C-5.8115625 3.69796875 -5.6465625 2.79046875 -5.4765625 1.85546875 C-2.4765625 -0.14453125 -2.4765625 -0.14453125 0 0 Z " fill="#AFB1B3" transform="translate(180.4765625,73.14453125)"/>
<path d="M0 0 C4.81710928 1.47980606 5.98573921 4.71210428 8.43359375 8.89453125 C15.98068798 23.18075829 18.61108287 39.62125373 14.79296875 55.5078125 C12.27942566 63.59543041 9.06368212 72.76345191 3.0390625 78.93359375 C-0.7109375 80.12109375 -0.7109375 80.12109375 -3.9609375 79.93359375 C-5.9609375 77.93359375 -5.9609375 77.93359375 -6.2578125 75.5390625 C-5.91246787 72.50820899 -5.19627495 71.51154069 -3.2109375 69.24609375 C5.89184832 57.88375117 6.02948273 43.83820842 5.0390625 29.93359375 C3.65871187 21.73464363 0.66655272 15.57740528 -4.5703125 9.15234375 C-6.24342746 6.48287943 -6.4767542 5.02849398 -5.9609375 1.93359375 C-2.9609375 -0.06640625 -2.9609375 -0.06640625 0 0 Z " fill="#AFB1B3" transform="translate(163.9609375,88.06640625)"/>
<path d="M0 0 C0.66 0.33 1.32 0.66 2 1 C1.50628906 1.34289062 1.01257813 1.68578125 0.50390625 2.0390625 C-3.08428562 4.97026149 -4.79465674 6.93011493 -5.6875 11.58203125 C-5.91340869 15.06596686 -6.03388927 18.50940505 -6 22 C-6.33 22 -6.66 22 -7 22 C-8.0735426 7.65201794 -8.0735426 7.65201794 -5.44140625 3.6015625 C-3.68673155 2.15404413 -2.04014889 0.9992566 0 0 Z " fill="#AFB1B3" transform="translate(113,85)"/>
<path d="M0 0 C1.11375 0.1546875 1.11375 0.1546875 2.25 0.3125 C1.46625 0.89 0.6825 1.4675 -0.125 2.0625 C-2.58439943 4.17055666 -3.57777579 5.38193948 -4.75 8.3125 C-5.08 8.9725 -5.41 9.6325 -5.75 10.3125 C-6.5 8.125 -6.5 8.125 -6.75 5.3125 C-4.81920464 1.97073879 -3.92517916 0.44604309 0 0 Z " fill="#AFB1B3" transform="translate(60.75,108.6875)"/>
</svg>
